<?xml version="1.0" encoding="UTF-8" standalone="yes" ?>
<svg xmlns="http://www.w3.org/2000/svg" height="452" width="452">
  <script type="text/ecmascript">
    <![CDATA[
      var shown = 1;
      function click() {
        var seq = document.getElementById("seq");
        if (shown==1) {
          seq.setAttribute("style", "visibility: hidden");
          shown = 0;
        } else {
          seq.setAttribute("style", "visibility: visible");
          shown = 1;
        }
      }
    ]]>
  </script>
  <style type="text/css">
    <![CDATA[
      .nucleotide {
        font-family: SansSerif;
      }
      .backbone {
        stroke: grey;
        fill:   none;
        stroke-width: 1.5;
      }
      .basepairs {
        stroke: red;
        fill:   none;
        stroke-width: 2.5;
      }
    ]]>
  </style>

  <rect style="stroke: white; fill: white" height="452" x="0" y="0" width="452" onclick="click(evt)" />
  <g transform="scale(3.338099,3.338099) translate(-19.637127,-5.035145)">
    <polyline class="backbone" id="outline" points="
      95.526,34.977
      89.785,48.835
      82.975,62.201
      76.166,75.566
      68.420,83.033
      69.525,91.598
      64.889,105.864
      54.244,119.060
      63.977,132.942
      80.011,127.432
      79.155,110.500
      83.790,96.234
      89.531,82.375
      96.341,69.010
      103.150,55.645
      110.301,49.417
      109.791,39.612
      120.436,26.417
      110.703,12.535
    " />
    <g id="pairs">
      <line class="basepairs" id="1,17" x1="95.52553" y1="34.97722" x2="109.79138" y2="39.61248" />
      <line class="basepairs" id="2,15" x1="89.78528" y1="48.83541" x2="103.15038" y2="55.64527" />
      <line class="basepairs" id="3,14" x1="82.97542" y1="62.20052" x2="96.34052" y2="69.01037" />
      <line class="basepairs" id="4,13" x1="76.16557" y1="75.56561" x2="89.53066" y2="82.37547" />
      <line class="basepairs" id="6,12" x1="69.52456" y1="91.59840" x2="83.79041" y2="96.23366" />
      <line class="basepairs" id="7,11" x1="64.88931" y1="105.86426" x2="79.15516" y2="110.49951" />
    </g>
    <g transform="translate(-4.6, 4)" id="seq">
      <text class="nucleotide" x="95.526" y="34.977">A</text>
      <text class="nucleotide" x="89.785" y="48.835">C</text>
      <text class="nucleotide" x="82.975" y="62.201">G</text>
      <text class="nucleotide" x="76.166" y="75.566">U</text>
      <text class="nucleotide" x="68.420" y="83.033">A</text>
      <text class="nucleotide" x="69.525" y="91.598">C</text>
      <text class="nucleotide" x="64.889" y="105.864">G</text>
      <text class="nucleotide" x="54.244" y="119.060">A</text>
      <text class="nucleotide" x="63.977" y="132.942">G</text>
      <text class="nucleotide" x="80.011" y="127.432">C</text>
      <text class="nucleotide" x="79.155" y="110.500">U</text>
      <text class="nucleotide" x="83.790" y="96.234">G</text>
      <text class="nucleotide" x="89.531" y="82.375">A</text>
      <text class="nucleotide" x="96.341" y="69.010">C</text>
      <text class="nucleotide" x="103.150" y="55.645">G</text>
      <text class="nucleotide" x="110.301" y="49.417">A</text>
      <text class="nucleotide" x="109.791" y="39.612">U</text>
      <text class="nucleotide" x="120.436" y="26.417">G</text>
      <text class="nucleotide" x="110.703" y="12.535">C</text>
    </g>
  </g>
</svg>
