<?xml version="1.0" encoding="UTF-8" standalone="yes" ?>
<svg xmlns="http://www.w3.org/2000/svg" height="452" width="452">
  <script type="text/ecmascript">
    <![CDATA[
      var shown = 1;
      function click() {
        var seq = document.getElementById("seq");
        if (shown==1) {
          seq.setAttribute("style", "visibility: hidden");
          shown = 0;
        } else {
          seq.setAttribute("style", "visibility: visible");
          shown = 1;
        }
      }
    ]]>
  </script>
  <style type="text/css">
    <![CDATA[
      .nucleotide {
        font-family: SansSerif;
      }
      .backbone {
        stroke: grey;
        fill:   none;
        stroke-width: 1.5;
      }
      .basepairs {
        stroke: red;
        fill:   none;
        stroke-width: 2.5;
      }
    ]]>
  </style>

  <rect style="stroke: white; fill: white" height="452" x="0" y="0" width="452" onclick="click(evt)" />
  <g transform="scale(3.804180,3.804180) translate(-56.327499,-34.340431)">
    <polyline class="backbone" id="outline" points="
      92.574,49.160
      76.816,47.949
      64.872,58.298
      63.828,74.068
      74.303,85.902
      90.083,86.780
      91.011,93.640
      96.508,98.802
      104.646,99.398
      117.264,107.508
      129.883,115.618
      141.891,124.607
      149.902,139.549
      166.478,135.987
      167.644,119.073
      151.714,113.270
      148.290,105.487
      137.993,102.999
      125.374,94.889
      112.755,86.780
      101.419,76.957
    " />
    <g id="pairs">
      <line class="basepairs" id="6,21" x1="90.08273" y1="86.77954" x2="101.41898" y2="76.95663" />
      <line class="basepairs" id="9,20" x1="104.64561" y1="99.39835" x2="112.75522" y2="86.77954" />
      <line class="basepairs" id="10,19" x1="117.26441" y1="107.50796" x2="125.37402" y2="94.88915" />
      <line class="basepairs" id="11,18" x1="129.88321" y1="115.61757" x2="137.99283" y2="102.99876" />
      <line class="basepairs" id="12,16" x1="141.89133" y1="124.60674" x2="151.71425" y2="113.27049" />
    </g>
    <g transform="translate(-4.6, 4)" id="seq">
      <text class="nucleotide" x="92.574" y="49.160">A</text>
      <text class="nucleotide" x="76.816" y="47.949">C</text>
      <text class="nucleotide" x="64.872" y="58.298">G</text>
      <text class="nucleotide" x="63.828" y="74.068">U</text>
      <text class="nucleotide" x="74.303" y="85.902">A</text>
      <text class="nucleotide" x="90.083" y="86.780">G</text>
      <text class="nucleotide" x="91.011" y="93.640">C</text>
      <text class="nucleotide" x="96.508" y="98.802">C</text>
      <text class="nucleotide" x="104.646" y="99.398">G</text>
      <text class="nucleotide" x="117.264" y="107.508">G</text>
      <text class="nucleotide" x="129.883" y="115.618">A</text>
      <text class="nucleotide" x="141.891" y="124.607">U</text>
      <text class="nucleotide" x="149.902" y="139.549">G</text>
      <text class="nucleotide" x="166.478" y="135.987">A</text>
      <text class="nucleotide" x="167.644" y="119.073">U</text>
      <text class="nucleotide" x="151.714" y="113.270">G</text>
      <text class="nucleotide" x="148.290" y="105.487">A</text>
      <text class="nucleotide" x="137.993" y="102.999">U</text>
      <text class="nucleotide" x="125.374" y="94.889">C</text>
      <text class="nucleotide" x="112.755" y="86.780">C</text>
      <text class="nucleotide" x="101.419" y="76.957">C</text>
    </g>
  </g>
</svg>
