<?xml version="1.0" encoding="UTF-8" standalone="yes" ?>
<svg xmlns="http://www.w3.org/2000/svg" height="452" width="452">
  <script type="text/ecmascript">
    <![CDATA[
      var shown = 1;
      function click() {
        var seq = document.getElementById("seq");
        if (shown==1) {
          seq.setAttribute("style", "visibility: hidden");
          shown = 0;
        } else {
          seq.setAttribute("style", "visibility: visible");
          shown = 1;
        }
      }
    ]]>
  </script>
  <style type="text/css">
    <![CDATA[
      .nucleotide {
        font-family: SansSerif;
      }
      .backbone {
        stroke: grey;
        fill:   none;
        stroke-width: 1.5;
      }
      .basepairs {
        stroke: red;
        fill:   none;
        stroke-width: 2.5;
      }
    ]]>
  </style>

  <rect style="stroke: white; fill: white" height="452" x="0" y="0" width="452" onclick="click(evt)" />
  <g transform="scale(4.466312,4.466312) translate(-60.178104,-11.940987)">
    <polyline class="backbone" id="outline" points="
      91.019,19.441
      94.357,34.065
      97.695,48.689
      101.033,63.313
      104.370,77.937
      99.022,93.439
      109.977,105.643
      125.965,101.994
      130.539,86.246
      118.994,74.599
      115.656,59.975
      112.319,45.351
      108.981,30.727
    " />
    <g id="pairs">
      <line class="basepairs" id="2,13" x1="94.35695" y1="34.06490" x2="108.98087" y2="30.72709" />
      <line class="basepairs" id="3,12" x1="97.69476" y1="48.68882" x2="112.31868" y2="45.35101" />
      <line class="basepairs" id="4,11" x1="101.03258" y1="63.31274" x2="115.65649" y2="59.97493" />
      <line class="basepairs" id="5,10" x1="104.37039" y1="77.93666" x2="118.99431" y2="74.59885" />
    </g>
    <g transform="translate(-4.6, 4)" id="seq">
      <text class="nucleotide" x="91.019" y="19.441">A</text>
      <text class="nucleotide" x="94.357" y="34.065">G</text>
      <text class="nucleotide" x="97.695" y="48.689">U</text>
      <text class="nucleotide" x="101.033" y="63.313">A</text>
      <text class="nucleotide" x="104.370" y="77.937">G</text>
      <text class="nucleotide" x="99.022" y="93.439">C</text>
      <text class="nucleotide" x="109.977" y="105.643">C</text>
      <text class="nucleotide" x="125.965" y="101.994">A</text>
      <text class="nucleotide" x="130.539" y="86.246">G</text>
      <text class="nucleotide" x="118.994" y="74.599">C</text>
      <text class="nucleotide" x="115.656" y="59.975">U</text>
      <text class="nucleotide" x="112.319" y="45.351">G</text>
      <text class="nucleotide" x="108.981" y="30.727">C</text>
    </g>
  </g>
</svg>
