<?xml version="1.0" encoding="UTF-8" standalone="yes" ?>
<svg xmlns="http://www.w3.org/2000/svg" height="452" width="452">
  <script type="text/ecmascript">
    <![CDATA[
      var shown = 1;
      function click() {
        var seq = document.getElementById("seq");
        if (shown==1) {
          seq.setAttribute("style", "visibility: hidden");
          shown = 0;
        } else {
          seq.setAttribute("style", "visibility: visible");
          shown = 1;
        }
      }
    ]]>
  </script>
  <style type="text/css">
    <![CDATA[
      .nucleotide {
        font-family: SansSerif;
      }
      .backbone {
        stroke: grey;
        fill:   none;
        stroke-width: 1.5;
      }
      .basepairs {
        stroke: red;
        fill:   none;
        stroke-width: 2.5;
      }
    ]]>
  </style>

  <rect style="stroke: white; fill: white" height="452" x="0" y="0" width="452" onclick="click(evt)" />
  <g transform="scale(0.524726,0.524726) translate(326.812866,283.640350)">
    <polyline class="backbone" id="outline" points="
      -23.343,-231.099
      -25.037,-234.807
      -27.713,-237.105
      -30.391,-251.864
      -27.270,-268.528
      -42.419,-276.140
      -53.927,-263.691
      -45.150,-249.186
      -42.472,-234.427
      -40.125,-219.611
      -38.112,-204.747
      -36.098,-189.883
      -34.085,-175.019
      -32.071,-160.154
      -30.058,-145.290
      -28.044,-130.426
      -30.262,-123.375
      -25.888,-115.355
      -23.652,-100.523
      -21.416,-85.690
      -19.292,-70.841
      -17.278,-55.977
      -15.265,-41.113
      -27.595,-32.571
      -40.804,-39.679
      -54.013,-46.787
      -67.222,-53.895
      -80.431,-61.003
      -93.640,-68.111
      -106.849,-75.219
      -112.923,-82.042
      -120.309,-82.333
      -133.570,-89.342
      -146.779,-96.450
      -157.862,-109.280
      -173.259,-102.182
      -170.700,-85.422
      -153.887,-83.241
      -140.678,-76.133
      -136.278,-70.194
      -127.218,-69.019
      -113.957,-62.010
      -100.748,-54.902
      -87.539,-47.794
      -74.330,-40.686
      -61.121,-33.578
      -47.912,-26.470
      -34.703,-19.362
      -24.017,-8.835
      -16.712,4.266
      -16.201,11.640
      -9.199,17.508
      -1.699,30.498
      5.801,43.489
      13.301,56.479
      20.801,69.469
      28.301,82.460
      35.801,95.450
      43.301,108.440
      50.801,121.431
      58.301,134.421
      65.801,147.412
      73.301,160.402
      80.801,173.392
      88.301,186.383
      83.580,197.308
      88.982,210.121
      87.638,225.060
      81.130,238.575
      70.288,248.941
      59.368,259.225
      48.373,269.428
      37.377,279.631
      26.305,289.751
      15.158,299.788
      -0.659,305.893
      0.829,322.781
      17.470,326.027
      25.195,310.935
      36.342,300.898
      43.417,298.758
      47.579,290.626
      58.575,280.424
      69.571,270.221
      76.613,267.976
      80.654,259.783
      91.495,249.417
      105.796,253.945
      108.584,268.684
      111.263,283.443
      113.941,298.202
      116.619,312.961
      119.298,327.720
      121.976,342.478
      124.654,357.237
      127.333,371.996
      130.011,386.755
      132.689,401.514
      135.368,416.273
      138.046,431.032
      140.725,445.791
      135.576,460.751
      145.461,471.892
      148.140,486.651
      150.818,501.410
      153.386,516.189
      155.843,530.986
      154.162,539.965
      158.449,545.986
      155.328,562.650
      170.477,570.262
      181.986,557.812
      173.208,543.307
      170.640,528.529
      168.183,513.731
      170.189,506.617
      165.577,498.732
      162.898,483.973
      160.220,469.214
      165.561,455.310
      155.483,443.113
      152.805,428.354
      150.127,413.595
      147.448,398.836
      144.770,384.077
      142.092,369.318
      139.413,354.559
      136.735,339.800
      134.057,325.041
      131.378,310.282
      128.700,295.523
      126.022,280.764
      123.343,266.005
      125.242,258.862
      120.513,251.046
      102.577,226.405
      103.922,211.465
      114.841,201.181
      123.513,204.052
      130.055,200.612
      145.040,199.939
      160.025,199.266
      175.010,198.593
      189.994,197.920
      204.979,197.247
      219.964,196.574
      234.949,195.901
      249.934,195.228
      264.919,194.555
      279.904,193.882
      294.897,193.433
      309.895,193.209
      324.895,193.209
      339.894,193.433
      354.892,193.658
      370.639,199.940
      381.035,186.548
      371.044,172.850
      355.116,178.659
      340.118,178.435
      325.120,178.210
      321.209,175.467
      315.534,175.152
      309.671,178.210
      294.673,178.435
      290.682,175.810
      285.000,175.665
      279.231,178.897
      264.246,179.570
      249.261,180.243
      234.276,180.916
      219.291,181.589
      204.306,182.262
      189.322,182.935
      174.337,183.608
      159.352,184.281
      144.367,184.954
      129.382,185.627
      114.392,186.188
      101.291,178.883
      93.791,165.892
      86.291,152.902
      78.791,139.912
      71.291,126.921
      63.791,113.931
      56.291,100.940
      48.791,87.950
      41.291,74.960
      33.791,61.969
      26.291,48.979
      18.791,35.989
      11.291,22.998
      3.791,10.008
      -3.611,-3.038
      -10.916,-16.139
      -0.401,-43.126
      -2.414,-57.991
      -4.428,-72.855
      -2.478,-81.780
      -6.584,-87.926
      -8.820,-102.758
      -11.055,-117.591
      -13.180,-132.439
      -15.193,-147.304
      -17.207,-162.168
      -19.220,-177.032
      -21.234,-191.896
      -23.247,-206.761
      -25.261,-221.625
    " />
    <g id="pairs">
      <line class="basepairs" id="3,9" x1="-27.71274" y1="-237.10510" x2="-42.47168" y2="-234.42670" />
      <line class="basepairs" id="4,8" x1="-30.39109" y1="-251.86401" x2="-45.15004" y2="-249.18567" />
      <line class="basepairs" id="10,209" x1="-40.12517" y1="-219.61139" x2="-25.26092" y2="-221.62488" />
      <line class="basepairs" id="11,208" x1="-38.11167" y1="-204.74716" x2="-23.24742" y2="-206.76065" />
      <line class="basepairs" id="12,207" x1="-36.09817" y1="-189.88290" x2="-21.23392" y2="-191.89639" />
      <line class="basepairs" id="13,206" x1="-34.08467" y1="-175.01865" x2="-19.22042" y2="-177.03217" />
      <line class="basepairs" id="14,205" x1="-32.07117" y1="-160.15442" x2="-17.20693" y2="-162.16791" />
      <line class="basepairs" id="15,204" x1="-30.05767" y1="-145.29016" x2="-15.19343" y2="-147.30365" />
      <line class="basepairs" id="16,203" x1="-28.04417" y1="-130.42590" x2="-13.17993" y2="-132.43942" />
      <line class="basepairs" id="18,202" x1="-25.88776" y1="-115.35501" x2="-11.05530" y2="-117.59064" />
      <line class="basepairs" id="19,201" x1="-23.65213" y1="-100.52255" x2="-8.81967" y2="-102.75818" />
      <line class="basepairs" id="20,200" x1="-21.41650" y1="-85.69009" x2="-6.58403" y2="-87.92572" />
      <line class="basepairs" id="21,198" x1="-19.29187" y1="-70.84131" x2="-4.42762" y2="-72.85483" />
      <line class="basepairs" id="22,197" x1="-17.27837" y1="-55.97708" x2="-2.41412" y2="-57.99057" />
      <line class="basepairs" id="23,196" x1="-15.26487" y1="-41.11282" x2="-0.40063" y2="-43.12631" />
      <line class="basepairs" id="24,48" x1="-27.59490" y1="-32.57056" x2="-34.70293" y2="-19.36163" />
      <line class="basepairs" id="25,47" x1="-40.80384" y1="-39.67859" x2="-47.91187" y2="-26.46967" />
      <line class="basepairs" id="26,46" x1="-54.01277" y1="-46.78662" x2="-61.12080" y2="-33.57770" />
      <line class="basepairs" id="27,45" x1="-67.22170" y1="-53.89465" x2="-74.32973" y2="-40.68573" />
      <line class="basepairs" id="28,44" x1="-80.43063" y1="-61.00269" x2="-87.53867" y2="-47.79373" />
      <line class="basepairs" id="29,43" x1="-93.63957" y1="-68.11072" x2="-100.74760" y2="-54.90176" />
      <line class="basepairs" id="30,42" x1="-106.84850" y1="-75.21875" x2="-113.95653" y2="-62.00980" />
      <line class="basepairs" id="32,41" x1="-120.30862" y1="-82.33261" x2="-127.21826" y2="-69.01883" />
      <line class="basepairs" id="33,39" x1="-133.57036" y1="-89.34164" x2="-140.67839" y2="-76.13272" />
      <line class="basepairs" id="34,38" x1="-146.77930" y1="-96.44968" x2="-153.88731" y2="-83.24075" />
      <line class="basepairs" id="49,195" x1="-24.01729" y1="-8.83466" x2="-10.91617" y2="-16.13950" />
      <line class="basepairs" id="50,194" x1="-16.71246" y1="4.26648" x2="-3.61134" y2="-3.03836" />
      <line class="basepairs" id="52,193" x1="-9.19909" y1="17.50775" x2="3.79129" y2="10.00775" />
      <line class="basepairs" id="53,192" x1="-1.69909" y1="30.49814" x2="11.29129" y2="22.99814" />
      <line class="basepairs" id="54,191" x1="5.80091" y1="43.48851" x2="18.79129" y2="35.98853" />
      <line class="basepairs" id="55,190" x1="13.30091" y1="56.47890" x2="26.29129" y2="48.97890" />
      <line class="basepairs" id="56,189" x1="20.80091" y1="69.46927" x2="33.79129" y2="61.96927" />
      <line class="basepairs" id="57,188" x1="28.30091" y1="82.45966" x2="41.29129" y2="74.95966" />
      <line class="basepairs" id="58,187" x1="35.80091" y1="95.45004" x2="48.79129" y2="87.95004" />
      <line class="basepairs" id="59,186" x1="43.30091" y1="108.44041" x2="56.29129" y2="100.94041" />
      <line class="basepairs" id="60,185" x1="50.80091" y1="121.43080" x2="63.79129" y2="113.93080" />
      <line class="basepairs" id="61,184" x1="58.30091" y1="134.42117" x2="71.29129" y2="126.92117" />
      <line class="basepairs" id="62,183" x1="65.80090" y1="147.41156" x2="78.79129" y2="139.91156" />
      <line class="basepairs" id="63,182" x1="73.30090" y1="160.40195" x2="86.29129" y2="152.90195" />
      <line class="basepairs" id="64,181" x1="80.80090" y1="173.39233" x2="93.79129" y2="165.89232" />
      <line class="basepairs" id="65,180" x1="88.30090" y1="186.38271" x2="101.29129" y2="178.88271" />
      <line class="basepairs" id="67,137" x1="88.98237" y1="210.12079" x2="103.92199" y2="211.46538" />
      <line class="basepairs" id="68,136" x1="87.63778" y1="225.06039" x2="102.57739" y2="226.40500" />
      <line class="basepairs" id="69,87" x1="81.12952" y1="238.57494" x2="91.49547" y2="249.41685" />
      <line class="basepairs" id="70,86" x1="70.28761" y1="248.94087" x2="80.65354" y2="259.78281" />
      <line class="basepairs" id="71,84" x1="59.36845" y1="259.22543" x2="69.57104" y2="270.22119" />
      <line class="basepairs" id="72,83" x1="48.37267" y1="269.42801" x2="58.57526" y2="280.42380" />
      <line class="basepairs" id="73,82" x1="37.37689" y1="279.63062" x2="47.57948" y2="290.62637" />
      <line class="basepairs" id="74,80" x1="26.30511" y1="289.75067" x2="36.34206" y2="300.89783" />
      <line class="basepairs" id="75,79" x1="15.15793" y1="299.78763" x2="25.19489" y2="310.93481" />
      <line class="basepairs" id="88,135" x1="105.79559" y1="253.94528" x2="120.51281" y2="251.04643" />
      <line class="basepairs" id="89,133" x1="108.58426" y1="268.68378" x2="123.34320" y2="266.00543" />
      <line class="basepairs" id="90,132" x1="111.26261" y1="283.44272" x2="126.02155" y2="280.76437" />
      <line class="basepairs" id="91,131" x1="113.94096" y1="298.20166" x2="128.69991" y2="295.52332" />
      <line class="basepairs" id="92,130" x1="116.61932" y1="312.96060" x2="131.37827" y2="310.28226" />
      <line class="basepairs" id="93,129" x1="119.29768" y1="327.71954" x2="134.05661" y2="325.04120" />
      <line class="basepairs" id="94,128" x1="121.97603" y1="342.47849" x2="136.73497" y2="339.80014" />
      <line class="basepairs" id="95,127" x1="124.65438" y1="357.23743" x2="139.41333" y2="354.55908" />
      <line class="basepairs" id="96,126" x1="127.33273" y1="371.99637" x2="142.09167" y2="369.31802" />
      <line class="basepairs" id="97,125" x1="130.01109" y1="386.75531" x2="144.77003" y2="384.07697" />
      <line class="basepairs" id="98,124" x1="132.68944" y1="401.51428" x2="147.44838" y2="398.83591" />
      <line class="basepairs" id="99,123" x1="135.36780" y1="416.27319" x2="150.12674" y2="413.59485" />
      <line class="basepairs" id="100,122" x1="138.04614" y1="431.03217" x2="152.80508" y2="428.35382" />
      <line class="basepairs" id="101,121" x1="140.72450" y1="445.79108" x2="155.48344" y2="443.11273" />
      <line class="basepairs" id="103,119" x1="145.46115" y1="471.89224" x2="160.22011" y2="469.21387" />
      <line class="basepairs" id="104,118" x1="148.13951" y1="486.65118" x2="162.89845" y2="483.97284" />
      <line class="basepairs" id="105,117" x1="150.81787" y1="501.41013" x2="165.57681" y2="498.73175" />
      <line class="basepairs" id="106,115" x1="153.38574" y1="516.18872" x2="168.18311" y2="513.73145" />
      <line class="basepairs" id="107,114" x1="155.84302" y1="530.98608" x2="170.64038" y2="528.52881" />
      <line class="basepairs" id="109,113" x1="158.44931" y1="545.98572" x2="173.20825" y2="543.30737" />
      <line class="basepairs" id="138,179" x1="114.84114" y1="201.18082" x2="114.39241" y2="186.18753" />
      <line class="basepairs" id="140,178" x1="130.05489" y1="200.61157" x2="129.38193" y2="185.62668" />
      <line class="basepairs" id="141,177" x1="145.03979" y1="199.93860" x2="144.36682" y2="184.95370" />
      <line class="basepairs" id="142,176" x1="160.02469" y1="199.26562" x2="159.35172" y2="184.28073" />
      <line class="basepairs" id="143,175" x1="175.00958" y1="198.59265" x2="174.33661" y2="183.60776" />
      <line class="basepairs" id="144,174" x1="189.99448" y1="197.91968" x2="189.32150" y2="182.93478" />
      <line class="basepairs" id="145,173" x1="204.97937" y1="197.24670" x2="204.30640" y2="182.26181" />
      <line class="basepairs" id="146,172" x1="219.96426" y1="196.57373" x2="219.29129" y2="181.58884" />
      <line class="basepairs" id="147,171" x1="234.94916" y1="195.90076" x2="234.27620" y2="180.91586" />
      <line class="basepairs" id="148,170" x1="249.93407" y1="195.22778" x2="249.26109" y2="180.24289" />
      <line class="basepairs" id="149,169" x1="264.91895" y1="194.55481" x2="264.24597" y2="179.56992" />
      <line class="basepairs" id="150,168" x1="279.90384" y1="193.88184" x2="279.23087" y2="178.89694" />
      <line class="basepairs" id="151,165" x1="294.89713" y1="193.43311" x2="294.67276" y2="178.43478" />
      <line class="basepairs" id="152,164" x1="309.89545" y1="193.20871" x2="309.67108" y2="178.21039" />
      <line class="basepairs" id="153,161" x1="324.89545" y1="193.20871" x2="325.11984" y2="178.21039" />
      <line class="basepairs" id="154,160" x1="339.89377" y1="193.43311" x2="340.11816" y2="178.43478" />
      <line class="basepairs" id="155,159" x1="354.89209" y1="193.65750" x2="355.11649" y2="178.65918" />
    </g>
    <g transform="translate(-4.6, 4)" id="seq">
      <text class="nucleotide" x="-23.343" y="-231.099">A</text>
      <text class="nucleotide" x="-25.037" y="-234.807">C</text>
      <text class="nucleotide" x="-27.713" y="-237.105">G</text>
      <text class="nucleotide" x="-30.391" y="-251.864">U</text>
      <text class="nucleotide" x="-27.270" y="-268.528">G</text>
      <text class="nucleotide" x="-42.419" y="-276.140">U</text>
      <text class="nucleotide" x="-53.927" y="-263.691">G</text>
      <text class="nucleotide" x="-45.150" y="-249.186">A</text>
      <text class="nucleotide" x="-42.472" y="-234.427">U</text>
      <text class="nucleotide" x="-40.125" y="-219.611">C</text>
      <text class="nucleotide" x="-38.112" y="-204.747">G</text>
      <text class="nucleotide" x="-36.098" y="-189.883">U</text>
      <text class="nucleotide" x="-34.085" y="-175.019">A</text>
      <text class="nucleotide" x="-32.071" y="-160.154">G</text>
      <text class="nucleotide" x="-30.058" y="-145.290">C</text>
      <text class="nucleotide" x="-28.044" y="-130.426">U</text>
      <text class="nucleotide" x="-30.262" y="-123.375">G</text>
      <text class="nucleotide" x="-25.888" y="-115.355">A</text>
      <text class="nucleotide" x="-23.652" y="-100.523">U</text>
      <text class="nucleotide" x="-21.416" y="-85.690">C</text>
      <text class="nucleotide" x="-19.292" y="-70.841">G</text>
      <text class="nucleotide" x="-17.278" y="-55.977">U</text>
      <text class="nucleotide" x="-15.265" y="-41.113">A</text>
      <text class="nucleotide" x="-27.595" y="-32.571">C</text>
      <text class="nucleotide" x="-40.804" y="-39.679">G</text>
      <text class="nucleotide" x="-54.013" y="-46.787">A</text>
      <text class="nucleotide" x="-67.222" y="-53.895">U</text>
      <text class="nucleotide" x="-80.431" y="-61.003">C</text>
      <text class="nucleotide" x="-93.640" y="-68.111">G</text>
      <text class="nucleotide" x="-106.849" y="-75.219">A</text>
      <text class="nucleotide" x="-112.923" y="-82.042">U</text>
      <text class="nucleotide" x="-120.309" y="-82.333">C</text>
      <text class="nucleotide" x="-133.570" y="-89.342">G</text>
      <text class="nucleotide" x="-146.779" y="-96.450">A</text>
      <text class="nucleotide" x="-157.862" y="-109.280">U</text>
      <text class="nucleotide" x="-173.259" y="-102.182">C</text>
      <text class="nucleotide" x="-170.700" y="-85.422">G</text>
      <text class="nucleotide" x="-153.887" y="-83.241">U</text>
      <text class="nucleotide" x="-140.678" y="-76.133">C</text>
      <text class="nucleotide" x="-136.278" y="-70.194">A</text>
      <text class="nucleotide" x="-127.218" y="-69.019">G</text>
      <text class="nucleotide" x="-113.957" y="-62.010">U</text>
      <text class="nucleotide" x="-100.748" y="-54.902">C</text>
      <text class="nucleotide" x="-87.539" y="-47.794">G</text>
      <text class="nucleotide" x="-74.330" y="-40.686">A</text>
      <text class="nucleotide" x="-61.121" y="-33.578">U</text>
      <text class="nucleotide" x="-47.912" y="-26.470">C</text>
      <text class="nucleotide" x="-34.703" y="-19.362">G</text>
      <text class="nucleotide" x="-24.017" y="-8.835">U</text>
      <text class="nucleotide" x="-16.712" y="4.266">A</text>
      <text class="nucleotide" x="-16.201" y="11.640">C</text>
      <text class="nucleotide" x="-9.199" y="17.508">G</text>
      <text class="nucleotide" x="-1.699" y="30.498">U</text>
      <text class="nucleotide" x="5.801" y="43.489">A</text>
      <text class="nucleotide" x="13.301" y="56.479">C</text>
      <text class="nucleotide" x="20.801" y="69.469">G</text>
      <text class="nucleotide" x="28.301" y="82.460">U</text>
      <text class="nucleotide" x="35.801" y="95.450">A</text>
      <text class="nucleotide" x="43.301" y="108.440">C</text>
      <text class="nucleotide" x="50.801" y="121.431">G</text>
      <text class="nucleotide" x="58.301" y="134.421">U</text>
      <text class="nucleotide" x="65.801" y="147.412">A</text>
      <text class="nucleotide" x="73.301" y="160.402">C</text>
      <text class="nucleotide" x="80.801" y="173.392">G</text>
      <text class="nucleotide" x="88.301" y="186.383">U</text>
      <text class="nucleotide" x="83.580" y="197.308">A</text>
      <text class="nucleotide" x="88.982" y="210.121">C</text>
      <text class="nucleotide" x="87.638" y="225.060">G</text>
      <text class="nucleotide" x="81.130" y="238.575">U</text>
      <text class="nucleotide" x="70.288" y="248.941">A</text>
      <text class="nucleotide" x="59.368" y="259.225">C</text>
      <text class="nucleotide" x="48.373" y="269.428">G</text>
      <text class="nucleotide" x="37.377" y="279.631">C</text>
      <text class="nucleotide" x="26.305" y="289.751">C</text>
      <text class="nucleotide" x="15.158" y="299.788">G</text>
      <text class="nucleotide" x="-0.659" y="305.893">G</text>
      <text class="nucleotide" x="0.829" y="322.781">C</text>
      <text class="nucleotide" x="17.470" y="326.027">G</text>
      <text class="nucleotide" x="25.195" y="310.935">C</text>
      <text class="nucleotide" x="36.342" y="300.898">G</text>
      <text class="nucleotide" x="43.417" y="298.758">C</text>
      <text class="nucleotide" x="47.579" y="290.626">G</text>
      <text class="nucleotide" x="58.575" y="280.424">C</text>
      <text class="nucleotide" x="69.571" y="270.221">G</text>
      <text class="nucleotide" x="76.613" y="267.976">C</text>
      <text class="nucleotide" x="80.654" y="259.783">U</text>
      <text class="nucleotide" x="91.495" y="249.417">A</text>
      <text class="nucleotide" x="105.796" y="253.945">G</text>
      <text class="nucleotide" x="108.584" y="268.684">C</text>
      <text class="nucleotide" x="111.263" y="283.443">G</text>
      <text class="nucleotide" x="113.941" y="298.202">A</text>
      <text class="nucleotide" x="116.619" y="312.961">U</text>
      <text class="nucleotide" x="119.298" y="327.720">C</text>
      <text class="nucleotide" x="121.976" y="342.478">G</text>
      <text class="nucleotide" x="124.654" y="357.237">U</text>
      <text class="nucleotide" x="127.333" y="371.996">A</text>
      <text class="nucleotide" x="130.011" y="386.755">C</text>
      <text class="nucleotide" x="132.689" y="401.514">G</text>
      <text class="nucleotide" x="135.368" y="416.273">U</text>
      <text class="nucleotide" x="138.046" y="431.032">A</text>
      <text class="nucleotide" x="140.725" y="445.791">U</text>
      <text class="nucleotide" x="135.576" y="460.751">A</text>
      <text class="nucleotide" x="145.461" y="471.892">U</text>
      <text class="nucleotide" x="148.140" y="486.651">A</text>
      <text class="nucleotide" x="150.818" y="501.410">U</text>
      <text class="nucleotide" x="153.386" y="516.189">A</text>
      <text class="nucleotide" x="155.843" y="530.986">U</text>
      <text class="nucleotide" x="154.162" y="539.965">A</text>
      <text class="nucleotide" x="158.449" y="545.986">U</text>
      <text class="nucleotide" x="155.328" y="562.650">A</text>
      <text class="nucleotide" x="170.477" y="570.262">U</text>
      <text class="nucleotide" x="181.986" y="557.812">C</text>
      <text class="nucleotide" x="173.208" y="543.307">G</text>
      <text class="nucleotide" x="170.640" y="528.529">A</text>
      <text class="nucleotide" x="168.183" y="513.731">U</text>
      <text class="nucleotide" x="170.189" y="506.617">C</text>
      <text class="nucleotide" x="165.577" y="498.732">G</text>
      <text class="nucleotide" x="162.898" y="483.973">U</text>
      <text class="nucleotide" x="160.220" y="469.214">A</text>
      <text class="nucleotide" x="165.561" y="455.310">C</text>
      <text class="nucleotide" x="155.483" y="443.113">G</text>
      <text class="nucleotide" x="152.805" y="428.354">U</text>
      <text class="nucleotide" x="150.127" y="413.595">A</text>
      <text class="nucleotide" x="147.448" y="398.836">C</text>
      <text class="nucleotide" x="144.770" y="384.077">G</text>
      <text class="nucleotide" x="142.092" y="369.318">U</text>
      <text class="nucleotide" x="139.413" y="354.559">A</text>
      <text class="nucleotide" x="136.735" y="339.800">C</text>
      <text class="nucleotide" x="134.057" y="325.041">G</text>
      <text class="nucleotide" x="131.378" y="310.282">A</text>
      <text class="nucleotide" x="128.700" y="295.523">U</text>
      <text class="nucleotide" x="126.022" y="280.764">C</text>
      <text class="nucleotide" x="123.343" y="266.005">G</text>
      <text class="nucleotide" x="125.242" y="258.862">A</text>
      <text class="nucleotide" x="120.513" y="251.046">U</text>
      <text class="nucleotide" x="102.577" y="226.405">C</text>
      <text class="nucleotide" x="103.922" y="211.465">G</text>
      <text class="nucleotide" x="114.841" y="201.181">A</text>
      <text class="nucleotide" x="123.513" y="204.052">U</text>
      <text class="nucleotide" x="130.055" y="200.612">G</text>
      <text class="nucleotide" x="145.040" y="199.939">C</text>
      <text class="nucleotide" x="160.025" y="199.266">U</text>
      <text class="nucleotide" x="175.010" y="198.593">A</text>
      <text class="nucleotide" x="189.994" y="197.920">G</text>
      <text class="nucleotide" x="204.979" y="197.247">C</text>
      <text class="nucleotide" x="219.964" y="196.574">U</text>
      <text class="nucleotide" x="234.949" y="195.901">A</text>
      <text class="nucleotide" x="249.934" y="195.228">G</text>
      <text class="nucleotide" x="264.919" y="194.555">C</text>
      <text class="nucleotide" x="279.904" y="193.882">U</text>
      <text class="nucleotide" x="294.897" y="193.433">C</text>
      <text class="nucleotide" x="309.895" y="193.209">U</text>
      <text class="nucleotide" x="324.895" y="193.209">C</text>
      <text class="nucleotide" x="339.894" y="193.433">U</text>
      <text class="nucleotide" x="354.892" y="193.658">U</text>
      <text class="nucleotide" x="370.639" y="199.940">C</text>
      <text class="nucleotide" x="381.035" y="186.548">U</text>
      <text class="nucleotide" x="371.044" y="172.850">C</text>
      <text class="nucleotide" x="355.116" y="178.659">G</text>
      <text class="nucleotide" x="340.118" y="178.435">A</text>
      <text class="nucleotide" x="325.120" y="178.210">G</text>
      <text class="nucleotide" x="321.209" y="175.467">C</text>
      <text class="nucleotide" x="315.534" y="175.152">U</text>
      <text class="nucleotide" x="309.671" y="178.210">A</text>
      <text class="nucleotide" x="294.673" y="178.435">G</text>
      <text class="nucleotide" x="290.682" y="175.810">C</text>
      <text class="nucleotide" x="285.000" y="175.665">U</text>
      <text class="nucleotide" x="279.231" y="178.897">A</text>
      <text class="nucleotide" x="264.246" y="179.570">G</text>
      <text class="nucleotide" x="249.261" y="180.243">C</text>
      <text class="nucleotide" x="234.276" y="180.916">U</text>
      <text class="nucleotide" x="219.291" y="181.589">A</text>
      <text class="nucleotide" x="204.306" y="182.262">G</text>
      <text class="nucleotide" x="189.322" y="182.935">C</text>
      <text class="nucleotide" x="174.337" y="183.608">U</text>
      <text class="nucleotide" x="159.352" y="184.281">A</text>
      <text class="nucleotide" x="144.367" y="184.954">G</text>
      <text class="nucleotide" x="129.382" y="185.627">C</text>
      <text class="nucleotide" x="114.392" y="186.188">U</text>
      <text class="nucleotide" x="101.291" y="178.883">A</text>
      <text class="nucleotide" x="93.791" y="165.892">C</text>
      <text class="nucleotide" x="86.291" y="152.902">G</text>
      <text class="nucleotide" x="78.791" y="139.912">U</text>
      <text class="nucleotide" x="71.291" y="126.921">A</text>
      <text class="nucleotide" x="63.791" y="113.931">C</text>
      <text class="nucleotide" x="56.291" y="100.940">G</text>
      <text class="nucleotide" x="48.791" y="87.950">U</text>
      <text class="nucleotide" x="41.291" y="74.960">A</text>
      <text class="nucleotide" x="33.791" y="61.969">C</text>
      <text class="nucleotide" x="26.291" y="48.979">G</text>
      <text class="nucleotide" x="18.791" y="35.989">U</text>
      <text class="nucleotide" x="11.291" y="22.998">A</text>
      <text class="nucleotide" x="3.791" y="10.008">U</text>
      <text class="nucleotide" x="-3.611" y="-3.038">U</text>
      <text class="nucleotide" x="-10.916" y="-16.139">A</text>
      <text class="nucleotide" x="-0.401" y="-43.126">U</text>
      <text class="nucleotide" x="-2.414" y="-57.991">A</text>
      <text class="nucleotide" x="-4.428" y="-72.855">U</text>
      <text class="nucleotide" x="-2.478" y="-81.780">C</text>
      <text class="nucleotide" x="-6.584" y="-87.926">G</text>
      <text class="nucleotide" x="-8.820" y="-102.758">G</text>
      <text class="nucleotide" x="-11.055" y="-117.591">U</text>
      <text class="nucleotide" x="-13.180" y="-132.439">A</text>
      <text class="nucleotide" x="-15.193" y="-147.304">G</text>
      <text class="nucleotide" x="-17.207" y="-162.168">C</text>
      <text class="nucleotide" x="-19.220" y="-177.032">U</text>
      <text class="nucleotide" x="-21.234" y="-191.896">A</text>
      <text class="nucleotide" x="-23.247" y="-206.761">C</text>
      <text class="nucleotide" x="-25.261" y="-221.625">G</text>
    </g>
  </g>
</svg>
