<?xml version="1.0" encoding="UTF-8" standalone="yes" ?>
<svg xmlns="http://www.w3.org/2000/svg" height="452" width="452">
  <script type="text/ecmascript">
    <![CDATA[
      var shown = 1;
      function click() {
        var seq = document.getElementById("seq");
        if (shown==1) {
          seq.setAttribute("style", "visibility: hidden");
          shown = 0;
        } else {
          seq.setAttribute("style", "visibility: visible");
          shown = 1;
        }
      }
    ]]>
  </script>
  <style type="text/css">
    <![CDATA[
      .nucleotide {
        font-family: SansSerif;
      }
      .backbone {
        stroke: grey;
        fill:   none;
        stroke-width: 1.5;
      }
      .basepairs {
        stroke: red;
        fill:   none;
        stroke-width: 2.5;
      }
    ]]>
  </style>

  <rect style="stroke: white; fill: white" height="452" x="0" y="0" width="452" onclick="click(evt)" />
  <g transform="scale(5.259236,5.259236) translate(-66.896378,-26.859251)">
    <polyline class="backbone" id="outline" points="
      90.814,34.359
      94.697,48.848
      98.579,63.337
      102.461,77.826
      97.697,93.518
      109.100,105.303
      124.940,101.059
      128.922,85.151
      116.950,73.944
      113.068,59.455
      109.186,44.966
    " />
    <g id="pairs">
      <line class="basepairs" id="2,11" x1="94.69670" y1="48.84814" x2="109.18559" y2="44.96585" />
      <line class="basepairs" id="3,10" x1="98.57899" y1="63.33703" x2="113.06787" y2="59.45474" />
      <line class="basepairs" id="4,9" x1="102.46127" y1="77.82591" x2="116.95016" y2="73.94363" />
    </g>
    <g transform="translate(-4.6, 4)" id="seq">
      <text class="nucleotide" x="90.814" y="34.359">A</text>
      <text class="nucleotide" x="94.697" y="48.848">C</text>
      <text class="nucleotide" x="98.579" y="63.337">G</text>
      <text class="nucleotide" x="102.461" y="77.826">U</text>
      <text class="nucleotide" x="97.697" y="93.518">A</text>
      <text class="nucleotide" x="109.100" y="105.303">C</text>
      <text class="nucleotide" x="124.940" y="101.059">G</text>
      <text class="nucleotide" x="128.922" y="85.151">U</text>
      <text class="nucleotide" x="116.950" y="73.944">A</text>
      <text class="nucleotide" x="113.068" y="59.455">C</text>
      <text class="nucleotide" x="109.186" y="44.966">G</text>
    </g>
  </g>
</svg>
