<?xml version="1.0" encoding="UTF-8" standalone="yes" ?>
<svg xmlns="http://www.w3.org/2000/svg" height="452" width="452">
  <script type="text/ecmascript">
    <![CDATA[
      var shown = 1;
      function click() {
        var seq = document.getElementById("seq");
        if (shown==1) {
          seq.setAttribute("style", "visibility: hidden");
          shown = 0;
        } else {
          seq.setAttribute("style", "visibility: visible");
          shown = 1;
        }
      }
    ]]>
  </script>
  <style type="text/css">
    <![CDATA[
      .nucleotide {
        font-family: SansSerif;
      }
      .backbone {
        stroke: grey;
        fill:   none;
        stroke-width: 1.5;
      }
      .basepairs {
        stroke: red;
        fill:   none;
        stroke-width: 2.5;
      }
    ]]>
  </style>

  <rect style="stroke: white; fill: white" height="452" x="0" y="0" width="452" onclick="click(evt)" />
  <g transform="scale(2.137598,2.137598) translate(-20.576431,41.997940)">
    <polyline class="backbone" id="outline" points="
      83.744,-34.498
      72.060,-22.213
      80.631,-7.585
      78.139,-2.695
      79.294,3.867
      84.922,9.358
      84.042,17.274
      90.825,24.487
      89.875,30.499
      92.822,36.444
      99.143,39.858
      107.348,52.415
      115.026,65.301
      122.165,78.493
      128.753,91.969
      134.778,105.705
      140.804,119.442
      141.517,129.317
      147.936,134.032
      144.755,149.756
      155.176,161.954
      171.204,161.269
      180.545,148.225
      176.032,132.830
      161.128,126.893
      154.540,113.417
      148.515,99.680
      142.490,85.943
      142.712,77.982
      135.357,71.354
      128.218,58.162
      127.782,50.209
      119.905,44.211
      111.701,31.653
      104.562,18.461
      99.109,4.487
      95.427,-10.054
    " />
    <g id="pairs">
      <line class="basepairs" id="3,37" x1="80.63130" y1="-7.58467" x2="95.42673" y2="-10.05359" />
      <line class="basepairs" id="6,36" x1="84.92175" y1="9.35791" x2="99.10901" y2="4.48742" />
      <line class="basepairs" id="8,35" x1="90.82503" y1="24.48672" x2="104.56163" y2="18.46128" />
      <line class="basepairs" id="11,34" x1="99.14334" y1="39.85761" x2="111.70084" y2="31.65339" />
      <line class="basepairs" id="12,33" x1="107.34756" y1="52.41511" x2="119.90506" y2="44.21088" />
      <line class="basepairs" id="13,31" x1="115.02584" y1="65.30092" x2="128.21794" y2="58.16171" />
      <line class="basepairs" id="14,30" x1="122.16505" y1="78.49303" x2="135.35716" y2="71.35381" />
      <line class="basepairs" id="15,28" x1="128.75301" y1="91.96889" x2="142.48959" y2="85.94346" />
      <line class="basepairs" id="16,27" x1="134.77843" y1="105.70549" x2="148.51503" y2="99.68005" />
      <line class="basepairs" id="17,26" x1="140.80386" y1="119.44209" x2="154.54047" y2="113.41666" />
      <line class="basepairs" id="19,25" x1="147.93631" y1="134.03174" x2="161.12840" y2="126.89252" />
    </g>
    <g transform="translate(-4.6, 4)" id="seq">
      <text class="nucleotide" x="83.744" y="-34.498">A</text>
      <text class="nucleotide" x="72.060" y="-22.213">C</text>
      <text class="nucleotide" x="80.631" y="-7.585">G</text>
      <text class="nucleotide" x="78.139" y="-2.695">U</text>
      <text class="nucleotide" x="79.294" y="3.867">A</text>
      <text class="nucleotide" x="84.922" y="9.358">C</text>
      <text class="nucleotide" x="84.042" y="17.274">G</text>
      <text class="nucleotide" x="90.825" y="24.487">U</text>
      <text class="nucleotide" x="89.875" y="30.499">A</text>
      <text class="nucleotide" x="92.822" y="36.444">C</text>
      <text class="nucleotide" x="99.143" y="39.858">G</text>
      <text class="nucleotide" x="107.348" y="52.415">U</text>
      <text class="nucleotide" x="115.026" y="65.301">U</text>
      <text class="nucleotide" x="122.165" y="78.493">U</text>
      <text class="nucleotide" x="128.753" y="91.969">G</text>
      <text class="nucleotide" x="134.778" y="105.705">U</text>
      <text class="nucleotide" x="140.804" y="119.442">G</text>
      <text class="nucleotide" x="141.517" y="129.317">C</text>
      <text class="nucleotide" x="147.936" y="134.032">U</text>
      <text class="nucleotide" x="144.755" y="149.756">G</text>
      <text class="nucleotide" x="155.176" y="161.954">C</text>
      <text class="nucleotide" x="171.204" y="161.269">G</text>
      <text class="nucleotide" x="180.545" y="148.225">U</text>
      <text class="nucleotide" x="176.032" y="132.830">C</text>
      <text class="nucleotide" x="161.128" y="126.893">G</text>
      <text class="nucleotide" x="154.540" y="113.417">C</text>
      <text class="nucleotide" x="148.515" y="99.680">G</text>
      <text class="nucleotide" x="142.490" y="85.943">C</text>
      <text class="nucleotide" x="142.712" y="77.982">U</text>
      <text class="nucleotide" x="135.357" y="71.354">G</text>
      <text class="nucleotide" x="128.218" y="58.162">A</text>
      <text class="nucleotide" x="127.782" y="50.209">U</text>
      <text class="nucleotide" x="119.905" y="44.211">A</text>
      <text class="nucleotide" x="111.701" y="31.653">U</text>
      <text class="nucleotide" x="104.562" y="18.461">A</text>
      <text class="nucleotide" x="99.109" y="4.487">G</text>
      <text class="nucleotide" x="95.427" y="-10.054">C</text>
    </g>
  </g>
</svg>
