<?xml version="1.0" encoding="UTF-8" standalone="yes" ?>
<svg xmlns="http://www.w3.org/2000/svg" height="452" width="452">
  <script type="text/ecmascript">
    <![CDATA[
      var shown = 1;
      function click() {
        var seq = document.getElementById("seq");
        if (shown==1) {
          seq.setAttribute("style", "visibility: hidden");
          shown = 0;
        } else {
          seq.setAttribute("style", "visibility: visible");
          shown = 1;
        }
      }
    ]]>
  </script>
  <style type="text/css">
    <![CDATA[
      .nucleotide {
        font-family: SansSerif;
      }
      .backbone {
        stroke: grey;
        fill:   none;
        stroke-width: 1.5;
      }
      .basepairs {
        stroke: red;
        fill:   none;
        stroke-width: 2.5;
      }
    ]]>
  </style>

  <rect style="stroke: white; fill: white" height="452" x="0" y="0" width="452" onclick="click(evt)" />
  <g transform="scale(3.096771,3.096771) translate(-35.741955,-16.769245)">
    <polyline class="backbone" id="outline" points="
      79.012,24.269
      83.698,43.076
      81.127,51.067
      87.007,59.712
      90.889,74.201
      89.741,83.339
      96.341,90.263
      101.163,104.467
      105.045,118.956
      103.238,127.580
      106.663,134.166
      112.284,136.432
      114.967,153.172
      131.796,155.228
      138.430,139.626
      125.274,128.932
      119.534,115.074
      115.652,100.585
      117.158,92.326
      110.200,84.523
      105.378,70.319
      101.496,55.830
      98.569,41.118
    " />
    <g id="pairs">
      <line class="basepairs" id="2,23" x1="83.69777" y1="43.07600" x2="98.56944" y2="41.11810" />
      <line class="basepairs" id="4,22" x1="87.00691" y1="59.71217" x2="101.49580" y2="55.82989" />
      <line class="basepairs" id="5,21" x1="90.88920" y1="74.20106" x2="105.37808" y2="70.31877" />
      <line class="basepairs" id="7,20" x1="96.34148" y1="90.26298" x2="110.19968" y2="84.52273" />
      <line class="basepairs" id="8,18" x1="101.16307" y1="104.46693" x2="115.65196" y2="100.58464" />
      <line class="basepairs" id="9,17" x1="105.04536" y1="118.95582" x2="119.53425" y2="115.07353" />
      <line class="basepairs" id="12,16" x1="112.28412" y1="136.43173" x2="125.27450" y2="128.93173" />
    </g>
    <g transform="translate(-4.6, 4)" id="seq">
      <text class="nucleotide" x="79.012" y="24.269">A</text>
      <text class="nucleotide" x="83.698" y="43.076">C</text>
      <text class="nucleotide" x="81.127" y="51.067">G</text>
      <text class="nucleotide" x="87.007" y="59.712">U</text>
      <text class="nucleotide" x="90.889" y="74.201">A</text>
      <text class="nucleotide" x="89.741" y="83.339">C</text>
      <text class="nucleotide" x="96.341" y="90.263">G</text>
      <text class="nucleotide" x="101.163" y="104.467">U</text>
      <text class="nucleotide" x="105.045" y="118.956">A</text>
      <text class="nucleotide" x="103.238" y="127.580">C</text>
      <text class="nucleotide" x="106.663" y="134.166">C</text>
      <text class="nucleotide" x="112.284" y="136.432">C</text>
      <text class="nucleotide" x="114.967" y="153.172">A</text>
      <text class="nucleotide" x="131.796" y="155.228">C</text>
      <text class="nucleotide" x="138.430" y="139.626">C</text>
      <text class="nucleotide" x="125.274" y="128.932">G</text>
      <text class="nucleotide" x="119.534" y="115.074">U</text>
      <text class="nucleotide" x="115.652" y="100.585">A</text>
      <text class="nucleotide" x="117.158" y="92.326">G</text>
      <text class="nucleotide" x="110.200" y="84.523">C</text>
      <text class="nucleotide" x="105.378" y="70.319">U</text>
      <text class="nucleotide" x="101.496" y="55.830">A</text>
      <text class="nucleotide" x="98.569" y="41.118">G</text>
    </g>
  </g>
</svg>
