<?xml version="1.0" encoding="UTF-8" standalone="yes" ?>
<svg xmlns="http://www.w3.org/2000/svg" height="452" width="452">
  <script type="text/ecmascript">
    <![CDATA[
      var shown = 1;
      function click() {
        var seq = document.getElementById("seq");
        if (shown==1) {
          seq.setAttribute("style", "visibility: hidden");
          shown = 0;
        } else {
          seq.setAttribute("style", "visibility: visible");
          shown = 1;
        }
      }
    ]]>
  </script>
  <style type="text/css">
    <![CDATA[
      .nucleotide {
        font-family: SansSerif;
      }
      .backbone {
        stroke: grey;
        fill:   none;
        stroke-width: 1.5;
      }
      .basepairs {
        stroke: red;
        fill:   none;
        stroke-width: 2.5;
      }
    ]]>
  </style>

  <rect style="stroke: white; fill: white" height="452" x="0" y="0" width="452" onclick="click(evt)" />
  <g transform="scale(2.601407,2.601407) translate(1.306488,-9.713768)">
    <polyline class="backbone" id="outline" points="
      93.457,29.317
      93.457,44.317
      92.820,59.303
      90.915,74.182
      85.468,94.307
      73.040,102.707
      60.267,110.572
      50.561,112.649
      46.785,119.684
      34.725,128.604
      22.665,137.523
      6.335,142.080
      6.194,159.034
      22.445,163.863
      31.584,149.583
      43.644,140.664
      55.704,131.744
      68.132,123.344
      80.905,115.480
      88.840,114.599
      94.387,106.367
      109.172,103.832
      123.514,108.225
      137.857,112.617
      151.231,123.036
      164.946,113.069
      159.164,97.131
      142.249,98.274
      127.907,93.882
      113.564,89.490
      105.699,76.717
      110.553,68.057
      107.766,60.575
      111.868,51.536
      108.457,44.317
      108.457,29.317
    " />
    <g id="pairs">
      <line class="basepairs" id="1,36" x1="93.45708" y1="29.31682" x2="108.45708" y2="29.31682" />
      <line class="basepairs" id="2,35" x1="93.45708" y1="44.31682" x2="108.45708" y2="44.31682" />
      <line class="basepairs" id="3,33" x1="92.82047" y1="59.30331" x2="107.76643" y2="60.57539" />
      <line class="basepairs" id="4,31" x1="90.91520" y1="74.18182" x2="105.69944" y2="76.71683" />
      <line class="basepairs" id="5,21" x1="85.46797" y1="94.30732" x2="94.38747" y2="106.36728" />
      <line class="basepairs" id="6,19" x1="73.04032" y1="102.70694" x2="80.90493" y2="115.47988" />
      <line class="basepairs" id="7,18" x1="60.26739" y1="110.57155" x2="68.13200" y2="123.34449" />
      <line class="basepairs" id="9,17" x1="46.78485" y1="119.68415" x2="55.70435" y2="131.74411" />
      <line class="basepairs" id="10,16" x1="34.72490" y1="128.60365" x2="43.64439" y2="140.66360" />
      <line class="basepairs" id="11,15" x1="22.66494" y1="137.52315" x2="31.58444" y2="149.58310" />
      <line class="basepairs" id="22,30" x1="109.17171" y1="103.83227" x2="113.56405" y2="89.48976" />
      <line class="basepairs" id="23,29" x1="123.51421" y1="108.22461" x2="127.90655" y2="93.88210" />
      <line class="basepairs" id="24,28" x1="137.85670" y1="112.61695" x2="142.24905" y2="98.27444" />
    </g>
    <g transform="translate(-4.6, 4)" id="seq">
      <text class="nucleotide" x="93.457" y="29.317">A</text>
      <text class="nucleotide" x="93.457" y="44.317">C</text>
      <text class="nucleotide" x="92.820" y="59.303">G</text>
      <text class="nucleotide" x="90.915" y="74.182">U</text>
      <text class="nucleotide" x="85.468" y="94.307">A</text>
      <text class="nucleotide" x="73.040" y="102.707">C</text>
      <text class="nucleotide" x="60.267" y="110.572">G</text>
      <text class="nucleotide" x="50.561" y="112.649">A</text>
      <text class="nucleotide" x="46.785" y="119.684">G</text>
      <text class="nucleotide" x="34.725" y="128.604">U</text>
      <text class="nucleotide" x="22.665" y="137.523">G</text>
      <text class="nucleotide" x="6.335" y="142.080">A</text>
      <text class="nucleotide" x="6.194" y="159.034">G</text>
      <text class="nucleotide" x="22.445" y="163.863">U</text>
      <text class="nucleotide" x="31.584" y="149.583">C</text>
      <text class="nucleotide" x="43.644" y="140.664">G</text>
      <text class="nucleotide" x="55.704" y="131.744">C</text>
      <text class="nucleotide" x="68.132" y="123.344">C</text>
      <text class="nucleotide" x="80.905" y="115.480">G</text>
      <text class="nucleotide" x="88.840" y="114.599">A</text>
      <text class="nucleotide" x="94.387" y="106.367">U</text>
      <text class="nucleotide" x="109.172" y="103.832">G</text>
      <text class="nucleotide" x="123.514" y="108.225">U</text>
      <text class="nucleotide" x="137.857" y="112.617">G</text>
      <text class="nucleotide" x="151.231" y="123.036">A</text>
      <text class="nucleotide" x="164.946" y="113.069">A</text>
      <text class="nucleotide" x="159.164" y="97.131">A</text>
      <text class="nucleotide" x="142.249" y="98.274">C</text>
      <text class="nucleotide" x="127.907" y="93.882">G</text>
      <text class="nucleotide" x="113.564" y="89.490">C</text>
      <text class="nucleotide" x="105.699" y="76.717">G</text>
      <text class="nucleotide" x="110.553" y="68.057">A</text>
      <text class="nucleotide" x="107.766" y="60.575">U</text>
      <text class="nucleotide" x="111.868" y="51.536">C</text>
      <text class="nucleotide" x="108.457" y="44.317">G</text>
      <text class="nucleotide" x="108.457" y="29.317">U</text>
    </g>
  </g>
</svg>
